<?xml version="1.0" encoding="utf-8"?>
<!-- Generator: Adobe Illustrator 16.0.0, SVG Export Plug-In . SVG Version: 6.00 Build 0)  -->
<!DOCTYPE svg PUBLIC "-//W3C//DTD SVG 1.1//EN" "http://www.w3.org/Graphics/SVG/1.1/DTD/svg11.dtd">
<svg version="1.1" id="Layer_1" xmlns="http://www.w3.org/2000/svg" xmlns:xlink="http://www.w3.org/1999/xlink" x="0px" y="0px"
	 width="1726.822px" height="353.768px" viewBox="0 0 1726.822 353.768" enable-background="new 0 0 1726.822 353.768"
	 xml:space="preserve">
<g>
	<path fill-rule="evenodd" clip-rule="evenodd" fill="#F69697" d="M252.621,337.833c-4.989,4.73-11.449,5.9-17.752,5.955
		c-31.328,0.275-62.666,0.455-93.989-0.035c-12.461-0.195-20.446-3.793-25.704-17.605C94.895,272.856,74.678,219.54,54.449,166.229
		C38.97,125.433,23.477,84.644,8.068,43.823c-2.699-7.152-4.286-14.41-1.419-22.07c2.233-5.969,6.248-10.389,11.876-12.547
		c5.065-1.943,10.57-2.904,16.216-2.879c30.602,0.129,61.205-0.1,91.805,0.152c10.059,0.082,19.364,2.723,24.694,12.568
		c2.161,3.992,2.97,8.471,4.322,12.742c11.114,35.152,22.139,70.332,33.254,105.484c0.589,1.867,1.064,3.32,2.034,6.059
		c0.607,1.832,0.833,2.408,1.222,3.594c9.081,29.117,18.191,58.229,27.313,87.336c9.165,29.244,18.292,58.5,27.576,87.707
		C248.658,327.31,250.847,332.792,252.621,337.833z"/>
	<path fill-rule="evenodd" clip-rule="evenodd" fill="#E66262" d="M252.621,337.833c-1.921-4.238-3.962-10.523-5.659-15.863
		c-9.284-29.207-18.412-58.463-27.576-87.707c-9.122-29.107-18.231-58.219-27.313-87.336c-0.425-1.365-0.82-2.084-1.222-3.594
		c7.816-29.236,18.414-58.139,35.738-83.303c18.681-27.137,43.597-44.914,76.492-50.625c10.082-1.752,20.256-1.994,30.448-2.42
		c7.153-0.297,14.122-0.615,21.208,1.121c10.828,2.652,18.743,14.855,16.061,26.221c-3.93,16.635-11.231,32.092-17.268,47.975
		c-30.951,81.424-62.122,162.766-93.217,244.137C258.064,331.626,256.434,333.921,252.621,337.833z"/>
</g>
<g>
	<path d="M509.846,9.517l36.359,110.211L582.563,9.517h48.402l-61.582,159.295h-49.084l-60.9-159.295H509.846z"/>
	<path d="M713.448,9.517v159.295h-47.266V9.517H713.448z"/>
	<path d="M865.24,168.812l-37.039-58.174l-17.953,19.996v38.178h-47.265V9.517h47.265V70.87L863.65,9.517h54.537l-57.719,64.762
		l61.355,94.533H865.24z"/>
	<path d="M1065.887,143.36h-64.309l-9.544,25.451h-48.63L1011.35,9.517h48.629l65.673,159.295h-50.447L1065.887,143.36z
		 M1053.389,108.819l-19.088-52.037l-19.543,52.037H1053.389z"/>
	<path d="M1200.41,9.517l67.49,89.076V9.517h43.176v159.295h-40.221l-67.491-88.625v88.625h-43.402V9.517H1200.41z"/>
	<path d="M1516.042,89.05c0,47.947-34.768,79.762-87.26,79.762h-68.172V9.517h69.763C1481.956,9.517,1516.042,41.103,1516.042,89.05
		z M1467.867,89.505c0-25.68-15.68-42.723-38.404-42.723h-21.588v84.988h23.861C1453.323,131.771,1467.867,114.954,1467.867,89.505z
		"/>
	<path d="M1659.201,143.36h-64.309l-9.544,25.451h-48.63l67.945-159.295h48.629l65.672,159.295h-50.446L1659.201,143.36z
		 M1646.703,108.819l-19.088-52.037l-19.543,52.037H1646.703z"/>
</g>
<g>
	<path d="M572.293,276.196h14.662v52.455c-14.249,11.357-34.281,18.791-53.691,18.791c-41.922,0-75.377-32.215-75.377-72.898
		c0-40.682,33.661-72.689,76.201-72.689c20.033,0,39.444,7.641,53.28,19.824l-9.499,11.977
		c-11.771-10.531-27.672-16.727-43.781-16.727c-33.041,0-59.475,25.607-59.475,57.615c0,32.217,26.641,57.824,59.682,57.824
		c13.01,0,26.846-4.543,37.998-12.186V276.196z"/>
	<path d="M785.407,274.544c0,40.684-33.454,72.898-75.582,72.898c-42.335,0-75.788-32.215-75.788-72.898
		c0-40.682,33.453-72.689,75.788-72.689C751.953,201.854,785.407,233.862,785.407,274.544z M650.763,274.544
		c0,32.01,26.846,57.824,59.062,57.824c32.215,0,58.648-25.814,58.648-57.824c0-32.008-26.434-57.408-58.648-57.408
		C677.609,217.136,650.763,242.536,650.763,274.544z"/>
	<path d="M853.342,202.267l86.734,117.504V202.267h16.314v144.557h-16.934l-86.733-117.297v117.297h-16.521V202.267H853.342z"/>
	<path d="M1125.519,202.267v12.803l-95.82,116.473h96.854l-0.207,15.281h-118.33v-12.805l95.821-116.471h-93.136v-15.281H1125.519z"
		/>
	<path d="M1269.245,309.858h-78.68l-16.108,36.965h-17.553l64.844-144.557h17.141l64.637,144.557h-17.966L1269.245,309.858z
		 M1262.636,294.577l-32.835-74.344l-32.422,74.344H1262.636z"/>
	<path d="M1363.409,202.267v129.275h63.398v15.281h-79.919V202.267H1363.409z"/>
	<path d="M1572.394,202.267v15.281h-81.57v48.529h72.896v15.076h-72.896v50.389h84.255v15.281h-100.776V202.267H1572.394z"/>
	<path d="M1671.307,217.755c-18.586,0-30.771,7.434-30.771,19.824c0,37.586,81.365,17.967,81.158,70.42
		c0,23.955-21.271,39.443-52.246,39.443c-21.064,0-41.716-9.086-55.345-22.096l7.435-14.25
		c13.423,12.805,31.803,20.238,48.116,20.238c20.857,0,33.868-8.467,33.868-22.51c0.206-38.617-81.158-18.172-81.158-70.006
		c0-22.717,20.031-37.172,49.975-37.172c16.727,0,33.868,5.369,45.845,13.422l-7.021,14.664
		C1698.153,221.267,1682.872,217.755,1671.307,217.755z"/>
</g>
</svg>
