<?xml version="1.0" encoding="utf-8"?>
<!-- Generator: Adobe Illustrator 16.0.0, SVG Export Plug-In . SVG Version: 6.00 Build 0)  -->
<!DOCTYPE svg PUBLIC "-//W3C//DTD SVG 1.1//EN" "http://www.w3.org/Graphics/SVG/1.1/DTD/svg11.dtd">
<svg version="1.1" id="Layer_1" xmlns="http://www.w3.org/2000/svg" xmlns:xlink="http://www.w3.org/1999/xlink" x="0px" y="0px"
	 width="880.772px" height="882.021px" viewBox="0 0 880.772 882.021" enable-background="new 0 0 880.772 882.021"
	 xml:space="preserve">
<g>
	<path fill="#F69697" d="M440.387,874.769c-115.234,0-219.975-44.912-297.681-118.185l136.11-136.11
		c-20.435-53.809-40.855-107.623-61.275-161.437c-25.438-67.042-50.899-134.076-76.223-201.162
		c-4.436-11.753-7.043-23.68-2.331-36.271c3.669-9.807,10.268-17.069,19.517-20.618c8.323-3.192,17.37-4.771,26.649-4.732
		c50.29,0.213,100.584-0.164,150.872,0.252c16.531,0.136,31.822,4.471,40.583,20.654c3.551,6.561,4.88,13.919,7.102,20.943
		c18.265,57.767,36.383,115.581,54.649,173.348c0.969,3.067,1.748,5.458,3.344,9.959c12.844-48.048,30.26-95.547,58.73-136.901
		c30.701-44.597,71.646-73.812,125.705-83.197c16.568-2.877,33.289-3.276,50.037-3.975c8.615-0.358,17.07-0.729,25.557,0.218
		c18.119-18.118,36.236-36.236,54.355-54.354C676.955,59.344,564.785,7,440.387,7c-239.692,0-434,194.309-434,434
		s194.309,434,434,434c239.691,0,434-194.309,434-434c0-0.039-0.002-0.077-0.002-0.116
		C874.322,680.522,680.039,874.769,440.387,874.769z"/>
	<path fill="#E66262" d="M711.029,199.179c17.797,4.358,30.805,24.414,26.395,43.091c-6.459,27.338-18.457,52.739-28.377,78.84
		c-50.865,133.813-102.09,267.489-153.193,401.211c-3.693,8.527-6.373,12.299-12.641,18.727c-8.197,7.775-18.814,9.697-29.172,9.789
		c-51.484,0.453-102.983,0.746-154.46-0.059c-20.479-0.32-33.602-6.23-42.241-28.932c-12.857-33.784-25.69-67.579-38.523-101.373
		l-136.11,136.11c77.706,73.272,182.447,118.185,297.681,118.185c239.652,0,433.935-194.246,433.998-433.884
		c0-0.039,0.002-0.077,0.002-0.116c0-115.233-44.912-219.975-118.186-297.68c-0.037,0.038-0.076,0.076-0.113,0.114
		c-18.119,18.118-36.236,36.236-54.355,54.354C704.824,197.902,707.919,198.417,711.029,199.179z"/>
</g>
</svg>
