<?xml version="1.0" encoding="utf-8"?>
<!-- Generator: Adobe Illustrator 16.0.0, SVG Export Plug-In . SVG Version: 6.00 Build 0)  -->
<!DOCTYPE svg PUBLIC "-//W3C//DTD SVG 1.1//EN" "http://www.w3.org/Graphics/SVG/1.1/DTD/svg11.dtd">
<svg version="1.1" id="Layer_1" xmlns="http://www.w3.org/2000/svg" xmlns:xlink="http://www.w3.org/1999/xlink" x="0px" y="0px"
	 width="1746.066px" height="410.62px" viewBox="0 0 1746.066 410.62" enable-background="new 0 0 1746.066 410.62"
	 xml:space="preserve">
<g>
	<path fill="#FFFFFF" d="M525.401,37.942l36.359,110.211l36.357-110.211h48.402l-61.582,159.295h-49.084l-60.9-159.295H525.401z"/>
	<path fill="#FFFFFF" d="M729.003,37.942v159.295h-47.266V37.942H729.003z"/>
	<path fill="#FFFFFF" d="M880.796,197.237l-37.039-58.174l-17.953,19.997v38.177h-47.266V37.942h47.266v61.354l53.402-61.354h54.537
		l-57.719,64.763l61.355,94.532H880.796z"/>
	<path fill="#FFFFFF" d="M1081.442,171.786h-64.309l-9.543,25.451H958.96l67.945-159.295h48.629l65.674,159.295h-50.447
		L1081.442,171.786z M1068.944,137.245l-19.088-52.037l-19.543,52.037H1068.944z"/>
	<path fill="#FFFFFF" d="M1215.966,37.942l67.49,89.077V37.942h43.176v159.295h-40.221l-67.492-88.624v88.624h-43.402V37.942
		H1215.966z"/>
	<path fill="#FFFFFF" d="M1531.597,117.476c0,47.948-34.768,79.762-87.26,79.762h-68.172V37.942h69.764
		C1497.511,37.942,1531.597,69.528,1531.597,117.476z M1483.423,117.931c0-25.679-15.68-42.722-38.404-42.722h-21.588v84.987h23.861
		C1468.878,160.196,1483.423,143.381,1483.423,117.931z"/>
	<path fill="#FFFFFF" d="M1674.757,171.786h-64.309l-9.545,25.451h-48.629l67.945-159.295h48.629l65.672,159.295h-50.447
		L1674.757,171.786z M1662.259,137.245l-19.088-52.037l-19.543,52.037H1662.259z"/>
</g>
<g>
	<path fill="#FFFFFF" d="M587.849,304.623h14.662v52.454c-14.248,11.357-34.281,18.792-53.691,18.792
		c-41.922,0-75.377-32.215-75.377-72.898c0-40.682,33.662-72.69,76.201-72.69c20.033,0,39.445,7.642,53.281,19.824l-9.5,11.978
		c-11.771-10.531-27.672-16.727-43.781-16.727c-33.041,0-59.475,25.607-59.475,57.615c0,32.217,26.641,57.823,59.682,57.823
		c13.01,0,26.846-4.543,37.998-12.185V304.623z"/>
	<path fill="#FFFFFF" d="M800.962,302.971c0,40.684-33.453,72.898-75.582,72.898c-42.334,0-75.787-32.215-75.787-72.898
		c0-40.682,33.453-72.69,75.787-72.69C767.509,230.28,800.962,262.289,800.962,302.971z M666.319,302.971
		c0,32.009,26.846,57.823,59.061,57.823s58.648-25.814,58.648-57.823c0-32.008-26.434-57.408-58.648-57.408
		S666.319,270.963,666.319,302.971z"/>
	<path fill="#FFFFFF" d="M868.897,230.693l86.734,117.503V230.693h16.314v144.556h-16.934L868.28,257.953v117.296h-16.521V230.693
		H868.897z"/>
	<path fill="#FFFFFF" d="M1141.075,230.693v12.803l-95.82,116.472h96.854l-0.207,15.281h-118.33v-12.804l95.82-116.471h-93.135
		v-15.281H1141.075z"/>
	<path fill="#FFFFFF" d="M1284.8,338.284h-78.68l-16.107,36.965h-17.553l64.844-144.556h17.141l64.637,144.556h-17.967
		L1284.8,338.284z M1278.192,323.003l-32.836-74.344l-32.422,74.344H1278.192z"/>
	<path fill="#FFFFFF" d="M1378.964,230.693v129.274h63.398v15.281h-79.918V230.693H1378.964z"/>
	<path fill="#FFFFFF" d="M1587.95,230.693v15.281h-81.57v48.529h72.896v15.075h-72.896v50.389h84.254v15.281h-100.775V230.693
		H1587.95z"/>
	<path fill="#FFFFFF" d="M1686.862,246.182c-18.586,0-30.77,7.434-30.77,19.824c0,37.585,81.365,17.967,81.158,70.42
		c0,23.955-21.271,39.443-52.246,39.443c-21.064,0-41.717-9.087-55.346-22.097l7.436-14.249
		c13.422,12.804,31.803,20.238,48.115,20.238c20.857,0,33.869-8.467,33.869-22.51c0.205-38.617-81.158-18.173-81.158-70.006
		c0-22.717,20.031-37.173,49.975-37.173c16.727,0,33.867,5.37,45.844,13.423l-7.02,14.663
		C1713.708,249.692,1698.427,246.182,1686.862,246.182z"/>
</g>
<g>
	<path fill="#F69697" d="M206.595,402.984c-52.513,0-100.245-20.467-135.657-53.858l62.027-62.027
		c-9.312-24.521-18.618-49.046-27.923-73.569c-11.592-30.551-23.196-61.099-34.736-91.671c-2.021-5.356-3.209-10.792-1.063-16.529
		c1.672-4.47,4.679-7.778,8.894-9.396c3.793-1.456,7.917-2.174,12.145-2.156c22.918,0.097,45.837-0.075,68.754,0.114
		c7.533,0.063,14.502,2.038,18.494,9.412c1.619,2.99,2.224,6.344,3.236,9.545c8.325,26.324,16.581,52.672,24.905,78.996
		c0.442,1.398,0.797,2.487,1.525,4.539c5.854-21.896,13.789-43.542,26.764-62.388c13.99-20.323,32.65-33.637,57.285-37.914
		c7.551-1.311,15.17-1.493,22.802-1.812c3.926-0.163,7.778-0.329,11.645,0.103c8.256-8.256,16.512-16.512,24.768-24.768
		C314.398,31.39,263.285,7.531,206.595,7.531C97.364,7.531,8.815,96.08,8.815,205.311S97.364,403.09,206.595,403.09
		s197.779-88.549,197.779-197.779c0-0.018-0.001-0.035-0.001-0.053C404.345,314.464,315.808,402.984,206.595,402.984z"/>
	<path fill="#E66262" d="M329.931,95.109c8.11,1.987,14.038,11.126,12.027,19.638c-2.942,12.458-8.411,24.033-12.93,35.928
		c-23.181,60.98-46.524,121.898-69.813,182.838c-1.684,3.886-2.905,5.604-5.761,8.534c-3.735,3.542-8.575,4.419-13.294,4.46
		c-23.461,0.207-46.93,0.341-70.389-0.027c-9.333-0.145-15.313-2.839-19.25-13.184c-5.859-15.396-11.707-30.797-17.555-46.197
		l-62.027,62.027c35.412,33.392,83.144,53.858,135.657,53.858c109.213,0,197.75-88.521,197.778-197.727
		c0-0.018,0.001-0.035,0.001-0.053c0-52.513-20.467-100.246-53.857-135.657c-0.019,0.019-0.038,0.038-0.057,0.058
		c-8.256,8.256-16.512,16.512-24.768,24.768C327.101,94.531,328.513,94.762,329.931,95.109z"/>
</g>
</svg>
