<?xml version="1.0" encoding="utf-8"?>
<!-- Generator: Adobe Illustrator 16.0.0, SVG Export Plug-In . SVG Version: 6.00 Build 0)  -->
<!DOCTYPE svg PUBLIC "-//W3C//DTD SVG 1.1//EN" "http://www.w3.org/Graphics/SVG/1.1/DTD/svg11.dtd">
<svg version="1.1" id="Layer_1" xmlns="http://www.w3.org/2000/svg" xmlns:xlink="http://www.w3.org/1999/xlink" x="0px" y="0px"
	 width="912.25px" height="842.188px" viewBox="0 0 912.25 842.188" enable-background="new 0 0 912.25 842.188"
	 xml:space="preserve">
<g>
	<path fill-rule="evenodd" clip-rule="evenodd" fill="#F69697" d="M614.577,822.283c-12.275,11.643-28.171,14.52-43.68,14.656
		c-77.085,0.68-154.194,1.119-231.268-0.088c-30.663-0.479-50.311-9.328-63.248-43.318
		c-49.905-131.129-99.649-262.318-149.424-393.497C88.869,299.655,50.746,199.288,12.831,98.842
		C6.189,81.245,2.285,63.387,9.339,44.536c5.495-14.684,15.373-25.558,29.222-30.87c12.463-4.78,26.008-7.144,39.902-7.085
		C153.761,6.9,229.065,6.335,304.359,6.958c24.752,0.204,47.646,6.695,60.764,30.925c5.317,9.823,7.307,20.841,10.632,31.357
		c27.348,86.493,54.476,173.056,81.826,259.549c1.45,4.592,2.617,8.172,5.007,14.911c1.492,4.507,2.048,5.925,3.006,8.842
		c22.345,71.649,44.761,143.277,67.206,214.896c22.55,71.961,45.008,143.949,67.853,215.814
		C604.828,796.395,610.213,809.883,614.577,822.283z"/>
	<path fill-rule="evenodd" clip-rule="evenodd" fill="#E66262" d="M614.577,822.283c-4.726-10.426-9.749-25.889-13.924-39.031
		c-22.845-71.865-45.303-143.854-67.853-215.814c-22.445-71.618-44.861-143.246-67.206-214.896c-1.047-3.36-2.018-5.127-3.006-8.842
		c19.231-71.941,45.307-143.06,87.936-204.978C596.491,71.949,657.798,28.207,738.739,14.154c24.808-4.307,49.843-4.905,74.92-5.951
		c17.599-0.732,34.747-1.515,52.185,2.756c26.646,6.526,46.123,36.554,39.519,64.519c-9.67,40.932-27.634,78.965-42.486,118.045
		c-76.16,200.354-152.858,400.505-229.372,600.724C627.971,807.014,623.96,812.658,614.577,822.283z"/>
</g>
</svg>
