<?xml version="1.0" encoding="iso-8859-1"?>
<!-- Generator: Adobe Illustrator 19.0.0, SVG Export Plug-In . SVG Version: 6.00 Build 0)  -->
<svg version="1.1" id="Capa_1" xmlns="http://www.w3.org/2000/svg" xmlns:xlink="http://www.w3.org/1999/xlink" x="0px" y="0px"
	 viewBox="0 0 512 512" style="enable-background:new 0 0 512 512;" xml:space="preserve">
<g>
	<g>
		<path d="M0,0v512h512V0H0z M482,482H30V30h452V482z"/>
	</g>
</g>
<g>
	<g>
		<path d="M60,60v392h392V60H60z M230.38,352l-15.84-42.48h-59.52L139.42,352h-34.08l65.04-170.4h29.28l64.8,170.4H230.38z
			 M393.221,353.2c-2.16,0.157-4.122,0.24-5.88,0.24c-15.689,0-19.763-10.237-20.4-14.88l-0.72-10.08
			c-5.603,8.64-20.819,25.92-50.64,25.92c-25.68,0-39.601-16.9-39.601-49.44v-78.72h32.16V298c0,19.361,6.96,29.04,20.88,29.04
			c18.631,0,28.717-15.12,32.4-22.8v-78h32.16v88.8c0,3.36,0.32,9.21,7.68,9.6V352h0.001
			C398.058,352.637,395.38,353.039,393.221,353.2z"/>
	</g>
</g>
<g>
	<g>
		<polygon points="185.02,219.28 160.54,286.24 208.54,286.24 		"/>
	</g>
</g>
<g>
</g>
<g>
</g>
<g>
</g>
<g>
</g>
<g>
</g>
<g>
</g>
<g>
</g>
<g>
</g>
<g>
</g>
<g>
</g>
<g>
</g>
<g>
</g>
<g>
</g>
<g>
</g>
<g>
</g>
</svg>
