<?xml version="1.0" encoding="iso-8859-1"?>
<!-- Generator: Adobe Illustrator 19.0.0, SVG Export Plug-In . SVG Version: 6.00 Build 0)  -->
<svg version="1.1" id="Capa_1" xmlns="http://www.w3.org/2000/svg" xmlns:xlink="http://www.w3.org/1999/xlink" x="0px" y="0px"
	 viewBox="0 0 512 512" style="enable-background:new 0 0 512 512;" xml:space="preserve">
<g>
	<g>
		<path d="M0,0v512h512V0H0z M482,482H30V30h452V482z"/>
	</g>
</g>
<g>
	<g>
		<path d="M332.26,251.44c-19.51,0-29.362,18.083-30.48,21.12v29.52c2.88,7.2,13.22,24.96,32.4,24.96
			c18.819,0,32.88-17.54,32.88-38.16C367.061,265.5,349.5,251.44,332.26,251.44z"/>
	</g>
</g>
<g>
	<g>
		<path d="M60,60v392h392V60H60z M184.662,353.92c-37.287,0-61.601-15.038-71.52-22.08l14.64-28.56
			c1.44,1.439,25.843,20.88,57.36,20.88c18.24,0,27.36-5.839,27.36-17.52c0-14.64-20.474-19.788-25.92-21.36
			c-33.458-9.655-66.48-15.28-66.48-51.36c0-35.42,27.772-53.52,62.16-53.52c29.988,0,51.998,13.841,59.52,18.96l-14.64,26.88
			c-1.121-1.118-19.892-16.8-45.84-16.8c-16.927,0-27.12,6.185-27.12,19.2c0,17.61,32.506,22.539,38.88,24.24
			c17.313,4.62,54.72,12.12,54.72,50.4C247.782,343,214.625,353.92,184.662,353.92z M344.98,354.4
			c-26.647,0-39.041-16.958-43.2-24.48v73.2h-32.16V226.24h28.08v21.6c4.639-7.357,17.966-23.76,43.44-23.76
			c32.359,0,58.8,28.086,58.8,64.8C399.94,330.333,372.667,354.4,344.98,354.4z"/>
	</g>
</g>
<g>
</g>
<g>
</g>
<g>
</g>
<g>
</g>
<g>
</g>
<g>
</g>
<g>
</g>
<g>
</g>
<g>
</g>
<g>
</g>
<g>
</g>
<g>
</g>
<g>
</g>
<g>
</g>
<g>
</g>
</svg>
