<?xml version="1.0" encoding="iso-8859-1"?>
<!-- Generator: Adobe Illustrator 19.0.0, SVG Export Plug-In . SVG Version: 6.00 Build 0)  -->
<svg version="1.1" id="Capa_1" xmlns="http://www.w3.org/2000/svg" xmlns:xlink="http://www.w3.org/1999/xlink" x="0px" y="0px"
	 viewBox="0 0 512 512" style="enable-background:new 0 0 512 512;" xml:space="preserve">
<g>
	<g>
		<path d="M0,0v512h512V0H0z M482,482H30V30h452V482z"/>
	</g>
</g>
<g>
	<g>
		<path d="M60,60v392h392V60H60z M193.062,353.92c-37.287,0-61.601-15.038-71.52-22.08l14.64-28.56
			c1.44,1.439,25.843,20.88,57.36,20.88c18.24,0,27.36-5.839,27.36-17.52c0-14.64-20.474-19.788-25.92-21.36
			c-33.458-9.655-66.48-15.28-66.48-51.36c0-35.42,27.772-53.52,62.16-53.52c29.988,0,51.998,13.841,59.52,18.96l-14.64,26.88
			c-1.121-1.118-19.892-16.8-45.84-16.8c-16.927,0-27.12,6.185-27.12,19.2c0,17.61,32.506,22.539,38.88,24.24
			c17.313,4.62,54.72,12.12,54.72,50.4C256.182,343,223.024,353.92,193.062,353.92z M336.581,354.4
			c-40.002,0-66.48-29.65-66.48-65.28c0-39.12,30.229-65.04,66.24-65.04c36.738,0,52.08,22.56,56.879,32.16l-31.439,9.6
			c-2.723-4.639-10.346-14.4-25.68-14.4c-18.521,0-32.881,15.36-32.881,37.68c0,18.63,12.609,37.92,32.881,37.92
			c16.479,0,24.24-10.718,26.16-14.88l31.439,9.6C389.379,331.36,374.079,354.4,336.581,354.4z"/>
	</g>
</g>
<g>
</g>
<g>
</g>
<g>
</g>
<g>
</g>
<g>
</g>
<g>
</g>
<g>
</g>
<g>
</g>
<g>
</g>
<g>
</g>
<g>
</g>
<g>
</g>
<g>
</g>
<g>
</g>
<g>
</g>
</svg>
