<?xml version="1.0" encoding="iso-8859-1"?>
<!-- Generator: Adobe Illustrator 19.0.0, SVG Export Plug-In . SVG Version: 6.00 Build 0)  -->
<svg version="1.1" id="Capa_1" xmlns="http://www.w3.org/2000/svg" xmlns:xlink="http://www.w3.org/1999/xlink" x="0px" y="0px"
	 viewBox="0 0 512 512" style="enable-background:new 0 0 512 512;" xml:space="preserve">
<g>
	<g>
		<path d="M0,0v512h512V0H0z M482,482H30V30h452V482z"/>
	</g>
</g>
<g>
	<g>
		<path d="M60,60v392h392V60H60z M269.381,352h-33.119V239.2l-43.92,84h-18l-43.92-84V352H97.301V181.6h35.521l50.4,96.96
			l50.88-96.96h35.279V352z M417.819,353.2c-2.16,0.157-4.122,0.24-5.88,0.24c-15.689,0-19.763-10.237-20.4-14.88l-0.72-10.08
			c-5.603,8.64-20.819,25.92-50.64,25.92c-25.68,0-39.601-16.9-39.601-49.44v-78.72h32.16V298c0,19.361,6.96,29.04,20.88,29.04
			c18.631,0,28.717-15.12,32.4-22.8v-78h32.16v88.8c0,3.36,0.32,9.21,7.68,9.6V352h0.001
			C422.656,352.637,419.978,353.039,417.819,353.2z"/>
	</g>
</g>
<g>
</g>
<g>
</g>
<g>
</g>
<g>
</g>
<g>
</g>
<g>
</g>
<g>
</g>
<g>
</g>
<g>
</g>
<g>
</g>
<g>
</g>
<g>
</g>
<g>
</g>
<g>
</g>
<g>
</g>
</svg>
