<?xml version="1.0" encoding="iso-8859-1"?>
<!-- Generator: Adobe Illustrator 19.0.0, SVG Export Plug-In . SVG Version: 6.00 Build 0)  -->
<svg version="1.1" id="Capa_1" xmlns="http://www.w3.org/2000/svg" xmlns:xlink="http://www.w3.org/1999/xlink" x="0px" y="0px"
	 viewBox="0 0 512 512" style="enable-background:new 0 0 512 512;" xml:space="preserve">
<g>
	<g>
		<path d="M0,0v512h512V0H0z M482,482H30V30h452V482z"/>
	</g>
</g>
<g>
	<g>
		<path d="M60,60v392h392V60H60z M192.703,353.44c-46.203,0-82.561-42.273-82.561-87.84c0-50.433,38.857-84.96,84-84.96
			c41.524,0,60.638,26.16,66.24,37.2l-25.439,17.52c-2.243-4.8-12.443-25.44-41.761-25.44c-23.683,0-49.44,19.413-49.44,56.64
			c0,31.273,20.758,57.6,49.92,57.6c29.338,0,40.08-21.278,42-25.92l27.121,15.6C260.061,320.241,241.333,353.44,192.703,353.44z
			 M398.859,352h-32.16v-70.56c0-19.44-7.532-29.04-21.119-29.04c-19.747,0-30.322,22.32-31.44,26.16V352h-32.16V176.8h32.159v72.72
			c4.64-8.16,17.86-25.44,45.12-25.44c21.073,0,39.6,10.253,39.6,49.44V352z"/>
	</g>
</g>
<g>
</g>
<g>
</g>
<g>
</g>
<g>
</g>
<g>
</g>
<g>
</g>
<g>
</g>
<g>
</g>
<g>
</g>
<g>
</g>
<g>
</g>
<g>
</g>
<g>
</g>
<g>
</g>
<g>
</g>
</svg>
