<?xml version="1.0" encoding="iso-8859-1"?>
<!-- Generator: Adobe Illustrator 19.0.0, SVG Export Plug-In . SVG Version: 6.00 Build 0)  -->
<svg version="1.1" id="Capa_1" xmlns="http://www.w3.org/2000/svg" xmlns:xlink="http://www.w3.org/1999/xlink" x="0px" y="0px"
	 viewBox="0 0 512 512" style="enable-background:new 0 0 512 512;" xml:space="preserve">
<g>
	<g>
		<path d="M0,0v512h512V0H0z M482,482H30V30h452V482z"/>
	</g>
</g>
<g>
	<g>
		<path d="M60,60v392h392V60H60z M200.14,353.92c-37.287,0-61.601-15.038-71.52-22.08l14.64-28.56
			c1.44,1.439,25.843,20.88,57.36,20.88c18.24,0,27.36-5.839,27.36-17.52c0-14.64-20.474-19.788-25.92-21.36
			c-33.458-9.655-66.48-15.28-66.48-51.36c0-35.42,27.772-53.52,62.16-53.52c29.988,0,51.998,13.841,59.52,18.96l-14.64,26.88
			c-1.121-1.118-19.892-16.8-45.84-16.8c-16.927,0-27.12,6.185-27.12,19.2c0,17.61,32.506,22.539,38.88,24.24
			c17.313,4.62,54.72,12.12,54.72,50.4C263.26,343,230.103,353.92,200.14,353.92z M342.461,376.96c-3.041,8.797-13.378,30-42.961,30
			c-7.583,0-13.199-1.68-16.08-2.64v-27.84c2.719,0.799,9.33,2.4,14.4,2.4c10.013,0,13.44-10.162,14.881-13.68
			c1.439-3.521,2.958-7.92,4.56-13.2L267.58,226.24h33.121l34.08,97.92l30.239-97.92h30.24L342.461,376.96z"/>
	</g>
</g>
<g>
</g>
<g>
</g>
<g>
</g>
<g>
</g>
<g>
</g>
<g>
</g>
<g>
</g>
<g>
</g>
<g>
</g>
<g>
</g>
<g>
</g>
<g>
</g>
<g>
</g>
<g>
</g>
<g>
</g>
</svg>
