<?xml version="1.0" encoding="iso-8859-1"?>
<!-- Generator: Adobe Illustrator 19.0.0, SVG Export Plug-In . SVG Version: 6.00 Build 0)  -->
<svg version="1.1" id="Capa_1" xmlns="http://www.w3.org/2000/svg" xmlns:xlink="http://www.w3.org/1999/xlink" x="0px" y="0px"
	 viewBox="0 0 512 512" style="enable-background:new 0 0 512 512;" xml:space="preserve">
<g>
	<g>
		<path d="M0,0v512h512V0H0z M482,482H30V30h452V482z"/>
	</g>
</g>
<g>
	<g>
		<path d="M60,60v392h392V60H60z M230.622,352l-15.84-42.48h-59.52l-15.6,42.48h-34.08l65.04-170.4h29.28l64.8,170.4H230.622z
			 M365.021,352v-70.56c0-20.107-7.854-29.04-19.92-29.04c-21.768,0-31.522,22.32-32.64,26.16V352h-32.16V226.24h29.04v23.28
			c4.639-7.999,18.492-25.44,49.92-25.44c30.572,0,37.92,24.253,37.92,49.44V352H365.021z"/>
	</g>
</g>
<g>
	<g>
		<polygon points="185.262,219.28 160.782,286.24 208.782,286.24 		"/>
	</g>
</g>
<g>
</g>
<g>
</g>
<g>
</g>
<g>
</g>
<g>
</g>
<g>
</g>
<g>
</g>
<g>
</g>
<g>
</g>
<g>
</g>
<g>
</g>
<g>
</g>
<g>
</g>
<g>
</g>
<g>
</g>
</svg>
