<?xml version="1.0" encoding="utf-8"?>
<!-- Generator: Adobe Illustrator 16.0.0, SVG Export Plug-In . SVG Version: 6.00 Build 0)  -->
<!DOCTYPE svg PUBLIC "-//W3C//DTD SVG 1.1//EN" "http://www.w3.org/Graphics/SVG/1.1/DTD/svg11.dtd">
<svg version="1.1" id="Layer_1" xmlns="http://www.w3.org/2000/svg" xmlns:xlink="http://www.w3.org/1999/xlink" x="0px" y="0px"
	 width="340px" height="491px" viewBox="0 0 340 491" enable-background="new 0 0 340 491" xml:space="preserve">
<g>
	<path fill-rule="evenodd" clip-rule="evenodd" fill="none" d="M-92,231.461C-92,129.974-91.978,28.487-92.096-73
		c-0.004-3.423,0.672-4.096,4.095-4.094c173.978,0.108,347.957,0.108,521.934,0c3.423-0.002,4.097,0.67,4.095,4.094
		c-0.105,202.974-0.105,405.949,0,608.923c0.001,3.423-0.67,4.097-4.095,4.095c-173.978-0.107-347.956-0.107-521.934,0
		c-3.422,0.002-4.1-0.669-4.096-4.095C-91.978,434.436-92,332.948-92,231.461z M34.268,323.524c-0.68,3.122,1.316,4.202,2.677,5.564
		c47.939,47.973,95.925,95.9,143.782,143.955c2.608,2.619,4.178,2.444,6.994,0.561c57.285-38.315,114.604-76.582,172.045-114.663
		c4.199-2.784,3.461-4.055,0.449-7.051c-37.443-37.26-74.716-74.691-112.197-111.914c-3.348-3.325-3.038-4.997,0.114-8.122
		c27.574-27.333,54.928-54.889,82.505-82.219c2.96-2.935,2.961-4.375,0.003-7.321C282.936,94.813,235.331,47.211,187.832-0.496
		c-3.044-3.057-4.523-3.25-7.685-0.067C143.631,36.21,106.989,72.858,70.229,109.388c-4.32,4.293-7.347,8.578-7.539,14.959
		c-0.159,5.275-1.517,10.509-2.27,15.771c-3.484,24.343-6.935,48.691-10.412,73.034c-3.525,24.673-7.075,49.342-10.599,74.015
		C37.647,299.503,35.918,311.844,34.268,323.524z"/>
	<path fill-rule="evenodd" clip-rule="evenodd" d="M7.268,331.524c1.651-11.681,3.38-24.021,5.142-36.358
		c3.524-24.673,7.074-49.342,10.599-74.015c3.478-24.343,6.928-48.691,10.412-73.034c0.752-5.262,2.111-10.496,2.27-15.771
		c0.192-6.381,3.219-10.666,7.539-14.959C79.989,80.858,116.631,44.21,153.147,7.437c3.161-3.183,4.641-2.99,7.685,0.067
		c47.499,47.708,95.104,95.309,142.808,142.811c2.958,2.946,2.957,4.386-0.003,7.321c-27.577,27.331-54.931,54.886-82.505,82.219
		c-3.152,3.125-3.462,4.797-0.114,8.122c37.481,37.223,74.754,74.654,112.197,111.914c3.012,2.996,3.75,4.267-0.449,7.051
		c-57.441,38.081-114.76,76.348-172.045,114.663c-2.816,1.884-4.386,2.059-6.994-0.561C105.87,432.989,57.884,385.062,9.944,337.089
		C8.583,335.727,6.587,334.646,7.268,331.524z"/>
</g>
</svg>
