<?xml version="1.0" encoding="utf-8"?>
<!-- Generator: Adobe Illustrator 16.0.0, SVG Export Plug-In . SVG Version: 6.00 Build 0)  -->
<!DOCTYPE svg PUBLIC "-//W3C//DTD SVG 1.1//EN" "http://www.w3.org/Graphics/SVG/1.1/DTD/svg11.dtd">
<svg version="1.1" id="Layer_1" xmlns="http://www.w3.org/2000/svg" xmlns:xlink="http://www.w3.org/1999/xlink" x="0px" y="0px"
	 width="182.135px" height="245.553px" viewBox="0 0 182.135 245.553" enable-background="new 0 0 182.135 245.553"
	 xml:space="preserve">
<path fill-rule="evenodd" clip-rule="evenodd" fill="#010101" d="M3.947,122.972c0-38.152,0.081-76.305-0.112-114.456
	C3.813,4.171,5.159,3.417,9.137,3.427c54.98,0.126,109.96,0.121,164.94,0.008c3.76-0.008,5.101,0.795,5.035,4.841
	c-0.243,14.823-0.237,29.656,0.02,44.479c0.073,4.239-1.274,5.165-5.339,5.147c-34.485-0.155-68.974-0.002-103.459-0.161
	c-3.788-0.018-4.749,0.961-4.646,4.642c0.259,9.323,0.306,18.665-0.01,27.984c-0.134,3.958,0.997,4.93,4.898,4.911
	c33.32-0.159,66.642-0.119,99.963-0.077c7.781,0.01,6.346-0.378,6.38,6.392c0.067,13.662-0.235,27.331,0.145,40.981
	c0.135,4.864-1.199,6.105-5.972,6.07c-29.821-0.222-59.645-0.139-89.467-0.147c-3.998-0.002-8.012,0.271-11.989-0.006
	c-3.131-0.219-3.946,0.824-3.917,3.873c0.142,15.493,0.07,30.987,0.071,46.482c0,13.494-0.094,26.991,0.063,40.484
	c0.038,3.273-0.912,4.248-4.242,4.215c-17.659-0.174-35.322-0.253-52.978,0.006c-4.242,0.063-4.757-1.539-4.748-5.123
	C3.986,199.942,3.947,161.457,3.947,122.972z"/>
</svg>
