<?xml version="1.0" encoding="utf-8"?>
<!-- Generator: Adobe Illustrator 16.0.0, SVG Export Plug-In . SVG Version: 6.00 Build 0)  -->
<!DOCTYPE svg PUBLIC "-//W3C//DTD SVG 1.1//EN" "http://www.w3.org/Graphics/SVG/1.1/DTD/svg11.dtd">
<svg version="1.1" id="Capa_1" xmlns="http://www.w3.org/2000/svg" xmlns:xlink="http://www.w3.org/1999/xlink" x="0px" y="0px"
	 width="619.5px" height="320px" viewBox="0 235.5 619.5 320" enable-background="new 0 235.5 619.5 320" xml:space="preserve">
<g>
	<path fill="none" d="M309.75,268c-152.042,0-280.5,58.384-280.5,127.5c0,30.356,24.803,58.631,65.475,80.808l36.911-147.646
		c1.42-5.678,6.512-9.662,12.364-9.662h53.453c15.714,0,30.257,7.098,39.932,19.486c9.662,12.377,13.024,28.228,9.201,43.468
		l-2.229,8.977c-8.193,32.722-37.454,55.57-71.171,55.57H128.46l-10.27,41.032C168.78,509.34,236.436,523,309.75,523
		c152.041,0,280.5-58.384,280.5-127.5C590.25,326.383,461.791,268,309.75,268z"/>
	<path fill="#303C42" d="M309.75,242.5c-171.589,0-306,67.211-306,153c0,85.789,134.411,153,306,153c171.59,0,306-67.211,306-153
		C615.75,309.711,481.34,242.5,309.75,242.5z M309.75,523c-73.314,0-140.97-13.66-191.56-35.468l10.27-41.032h44.725
		c33.717,0,62.979-22.848,71.171-55.57l2.229-8.977c3.823-15.24,0.46-31.09-9.201-43.468C227.71,326.098,213.167,319,197.453,319
		H144c-5.852,0-10.944,3.984-12.364,9.662L94.724,476.308C54.052,454.131,29.25,425.856,29.25,395.5
		c0-69.117,128.459-127.5,280.5-127.5c152.041,0,280.5,58.384,280.5,127.5C590.25,464.616,461.791,523,309.75,523z M134.836,421
		l19.125-76.5h43.491c7.795,0,15.029,3.524,19.822,9.675c4.807,6.151,6.475,14.02,4.57,21.603l-2.229,8.977
		C214.273,406.096,195.185,421,173.185,421H134.836z"/>
</g>
<g>
	<path fill="#303C42" d="M490.702,319h-53.453c-5.853,0-10.944,3.984-12.364,9.662l-25.438,101.714
		c-0.05,0.187-0.087,0.36-0.138,0.535l-12.675,50.751c-1.719,6.822,2.441,13.746,9.275,15.451c1.034,0.262,2.08,0.387,3.101,0.387
		c5.715,0,10.907-3.86,12.352-9.662l10.347-41.338h44.725c33.718,0,62.979-22.848,71.172-55.57l2.229-8.977
		c3.822-15.24,0.46-31.09-9.202-43.468C520.959,326.098,506.416,319,490.702,319z M515.095,375.777l-2.229,8.977
		C507.524,406.096,488.437,421,466.436,421h-38.35l19.125-76.5h43.491c7.795,0,15.029,3.524,19.822,9.675
		C515.332,360.326,516.999,368.194,515.095,375.777z"/>
	<path fill="#303C42" d="M378.48,334.564C370.424,324.678,358.496,319,345.733,319h-40.418l4.224-23.221
		c1.27-6.923-3.325-13.56-10.26-14.817c-6.885-1.271-13.572,3.324-14.817,10.259l-25.501,140.251
		c-1.271,6.923,3.324,13.56,10.26,14.817c0.772,0.149,1.531,0.211,2.291,0.211c6.052,0,11.418-4.308,12.526-10.471l16.641-91.528
		h45.055c5.056,0,9.774,2.241,12.962,6.163c3.188,3.921,4.433,9.001,3.399,13.958l-13.833,66.54c-1.432,6.885,3,13.634,9.898,15.079
		c0.871,0.174,1.743,0.262,2.603,0.262c5.914,0,11.218-4.134,12.477-10.16l13.833-66.54
		C389.661,357.312,386.523,344.462,378.48,334.564z"/>
</g>
</svg>
