<?xml version="1.0" encoding="utf-8"?>
<!-- Generator: Adobe Illustrator 16.0.0, SVG Export Plug-In . SVG Version: 6.00 Build 0)  -->
<!DOCTYPE svg PUBLIC "-//W3C//DTD SVG 1.1//EN" "http://www.w3.org/Graphics/SVG/1.1/DTD/svg11.dtd">
<svg version="1.1" id="Layer_1" xmlns="http://www.w3.org/2000/svg" xmlns:xlink="http://www.w3.org/1999/xlink" x="0px" y="0px"
	 width="185.058px" height="191.993px" viewBox="0 0 185.058 191.993" enable-background="new 0 0 185.058 191.993"
	 xml:space="preserve">
<g>
	<path fill-rule="evenodd" clip-rule="evenodd" fill="#800000018000000180000001" d="M159.125,110.71
		c4.071-0.693,7.171-1.189,10.258-1.756c5.436-0.998,10.048,0.758,12.144,4.672c2.138,3.994,1.095,8.32-3.033,12.557
		c-7.818,8.021-17.824,10.746-28.508,10.916c-4.442,0.07-5.226,2.096-5.274,5.479c-0.114,8.018-1.235,15.883-3.252,23.635
		c-5.007,19.244-24.17,25.24-36.997,22.541c-11.6-2.441-14.662-11.965-16.883-21.707c-1.811-7.949-1.764-16.164-2.247-24.6
		c-6.77,2.152-13.413,2.879-20.24,1.256c-2.793-0.666-5.654-1.395-7.723-3.191c-2.44-2.119-4.162-1.893-6.808-0.42
		c-6.289,3.502-13.51,2.096-19.231-3.111c-6.075-5.527-9.58-12.736-12.632-20.064C10.496,97.22,5.424,76.63,2.82,55.496
		C1.776,47.03,2.987,38.499,5.969,30.458c6.123-16.51,20.992-25.292,40.472-24.26c7.988,0.423,15.837,1.655,23.492,4.028
		c2.064,0.64,4.01,1.135,6.195-0.044c7.545-4.07,15.853-5.506,24.138-4.351c8.318,1.161,16.111-0.811,24.14-1.72
		c16.104-1.823,30.9,1.499,44.198,11.321c12.18,8.997,14.493,21.126,12.528,35.009c-2.848,20.122-10.201,38.649-19.805,56.392
		C160.781,107.843,160.195,108.829,159.125,110.71z M89.275,133.468c0.428,9.57,0.793,18.547,1.237,27.52
		c0.603,12.17,6.006,20.404,14.931,22.881c13.437,3.727,27.993-4.746,31.063-18.344c2.197-9.73,3.192-19.66,4.142-29.584
		c0.253-2.643-0.009-5.014,4.586-4.553c10.716,1.076,20.899-1.01,29.054-8.883c1.755-1.693,3.909-3.545,2.525-6.402
		c-1.465-3.029-4.302-2.666-6.979-2.201c-4.582,0.795-9.132,1.984-13.834,1.463c-5.261-0.582-5.458-1.088-2.817-5.496
		c11.613-19.391,19.955-39.997,22.867-62.552c1.189-9.212,0.29-17.8-7.168-24.746c-12.772-11.895-27.939-15.137-44.753-13.562
		c-6.543,0.612-12.714,3.875-19.563,2.364c-7.288-1.608-14.987-1.875-21.526,1.492c-7.031,3.621-13.332,2.905-20.153,0.622
		c-5.404-1.809-11.104-2.387-16.712-2.478c-10.501-0.171-20.611,1.546-28.346,9.669C8.293,30.69,6.898,43.197,8.108,56.016
		c1.438,15.226,5.422,29.989,10.151,44.522c3.439,10.568,6.92,21.168,14.218,29.869c7.014,8.363,14.137,8.266,21.282,0.029
		c4.036-4.654,8.106-9.277,12.228-13.854c0.78-0.867,1.305-2.211,3.202-1.391c2.633,1.139,5.493,1.752,8.282,2.6
		c-2.653,6.139-8.218,6.539-13.311,7.873c-3.186,0.834-7.127,1.547-7.077,5.729c0.047,3.863,3.521,5.328,6.819,6.279
		C72.816,140.241,81.254,139.419,89.275,133.468z"/>
	<path fill-rule="evenodd" clip-rule="evenodd" fill="#800000018000000180000001" d="M84.102,112.952
		c0.676-4.326,2.521-8.242,4.313-12.152c5.793-12.646,5.093-25.626,1.685-38.589c-1.922-7.312-8.905-10.784-17.088-9.246
		c-4.083,0.768-7.975,2.201-11.877,3.83c0.032-22.185,12.751-40.191,32.664-41.081c22.105-0.987,44.186,14.119,51.042,35.798
		c-3.403,0.571-6.848,0.085-10.167,0.945c-7.568,1.963-11.274,6.43-11.205,14.272c0.047,5.245,1.534,10.204,3.59,14.94
		c4.37,10.072,9.334,19.846,15.414,29.021c0.665,1.004,2.576,1.979-0.17,3.232c-4.735,2.16-5.482,6.605-5.833,11.289
		c-0.969,12.943-2.388,25.85-4.92,38.586c-2.134,10.736-13.536,17.785-24.202,15.291c-7.07-1.652-9.933-7.053-10.871-13.432
		c-1.894-12.889-1.898-25.889-1.307-38.885C95.541,118.624,92.271,114.466,84.102,112.952z"/>
	<path fill-rule="evenodd" clip-rule="evenodd" fill="#800000018000000180000001" d="M69.08,20.815
		C57.45,34.917,54.011,51.138,55.16,68.633c0.429,6.528-0.263,12.979-0.766,19.446c-0.623,8.018,1.172,15.26,6.76,21.199
		c1.823,1.938,1.63,3.121-0.06,4.936c-4.083,4.387-7.895,9.025-11.951,13.439c-4.634,5.043-7.884,5.025-12.384-0.188
		c-1.94-2.248-3.707-4.76-5.021-7.414c-10.06-20.336-15.615-42.007-18.336-64.414c-0.841-6.927-0.433-13.935,1.789-20.74
		c3.399-10.416,10.731-16.152,21.215-18.09C45.28,15.167,60.021,17.062,69.08,20.815z"/>
	<path fill-rule="evenodd" clip-rule="evenodd" fill="#800000018000000180000001" d="M120.197,14.954
		c10.387-1.953,20.423-1.54,30.238,1.908c1.717,0.603,3.418,1.367,4.964,2.319c16.563,10.206,17.309,14.568,14.927,31.6
		c-2.683,19.181-10.243,36.735-19.912,53.407c-0.295,0.508-0.904,0.832-1.771,1.135c3.561-9.184,2.098-18.414,0.997-27.651
		c-0.618-5.192,0.372-10.334,1.259-15.39c0.994-5.666,0.188-10.853-2.172-15.993c-5.654-12.313-14.112-22.081-25.852-28.941
		c-0.851-0.497-1.669-1.051-2.486-1.604C120.295,15.682,120.312,15.457,120.197,14.954z"/>
	<path fill-rule="evenodd" clip-rule="evenodd" fill="#800000018000000180000001" d="M87.482,82.386
		c0.581,9.439-5.405,18.365-8.609,28.07c-0.93,2.818-3.809,1.324-5.686,0.752c-7.567-2.307-13.708-10.266-13.603-18.523
		c0.115-8.971,1.348-17.92,0.77-26.922c-0.065-1.025,0.069-2.071,1.022-2.661c5.771-3.572,11.801-6.246,18.816-4.542
		c3.125,0.759,4.566,3.281,5.185,6.149C86.533,70.074,87.464,75.489,87.482,82.386z M77.597,60.648
		c-1.771,0.212-3.979,0.281-3.903,2.324c0.099,2.65,2.348,4.001,4.828,4.073c2.021,0.058,4.495-0.867,4.36-3.128
		C82.706,60.981,79.671,61.174,77.597,60.648z"/>
	<path fill-rule="evenodd" clip-rule="evenodd" fill="#800000018000000180000001" d="M143.377,102.134
		c-5.981-11.135-12.66-21.389-14.635-33.713c-0.57-3.559-0.128-7.126,3.265-9.303c3.865-2.481,8.236-2.2,12.539-1.574
		c1.631,0.238,1.329,1.762,1.11,2.824c-2.241,10.904-0.521,21.809-0.118,32.715C145.648,96.021,145.45,98.946,143.377,102.134z
		 M141.15,61.185c-0.962-2.281-2.981-1.619-4.63-1.521c-1.741,0.104-4.044,0.4-3.759,2.757c0.252,2.085,2.367,2.456,4.269,2.329
		C139.253,64.601,140.565,63.309,141.15,61.185z"/>
	<path fill-rule="evenodd" clip-rule="evenodd" fill="#800000018000000180000001" d="M63.892,132.077
		c1.02-1.877,2.569-1.605,3.762-1.822c6.016-1.088,10.859-3.875,14.322-9.018c1.349-2.004,3.063-3.939,5.662-1.734
		c2.364,2.006,2.568,4.453,0.806,7.08C83.89,133.372,73.981,135.651,63.892,132.077z"/>
	<path fill-rule="evenodd" clip-rule="evenodd" fill="#800000018000000180000001" d="M170.064,119.417
		c-8.462,6.492-16.839,7.818-25.76,6.787c-2.364-0.273-2.588-2.08-2.146-4.16c0.627-2.949,3.076-4.957,5.226-3.906
		C154.408,121.567,161.518,120.558,170.064,119.417z"/>
</g>
</svg>
